<svg width="121" height="36" viewBox="0 0 121 36" fill="none" xmlns="http://www.w3.org/2000/svg">
<path d="M23.6543 13.9062H21.9746V20H19.5137V5.78125H21.9746V11.7578H23.332L27.5117 5.78125H30.5391L25.6562 12.5879L30.9688 20H28L23.6543 13.9062ZM43.3711 13.2617C43.3711 14.6549 43.1302 15.8789 42.6484 16.9336C42.1667 17.9818 41.4766 18.7891 40.5781 19.3555C39.6862 19.9154 38.6576 20.1953 37.4922 20.1953C36.3398 20.1953 35.3112 19.9154 34.4062 19.3555C33.5078 18.7891 32.8112 17.985 32.3164 16.9434C31.8281 15.9017 31.5807 14.7005 31.5742 13.3398V12.5391C31.5742 11.1523 31.8184 9.92839 32.3066 8.86719C32.8014 7.80599 33.4948 6.99544 34.3867 6.43555C35.2852 5.86914 36.3138 5.58594 37.4727 5.58594C38.6315 5.58594 39.6569 5.86589 40.5488 6.42578C41.4473 6.97917 42.1406 7.77995 42.6289 8.82812C43.1172 9.86979 43.3646 11.084 43.3711 12.4707V13.2617ZM40.9004 12.5195C40.9004 10.944 40.6009 9.73633 40.002 8.89648C39.4095 8.05664 38.5664 7.63672 37.4727 7.63672C36.4049 7.63672 35.5684 8.05664 34.9629 8.89648C34.3639 9.72982 34.0579 10.9115 34.0449 12.4414V13.2617C34.0449 14.8242 34.3477 16.0319 34.9531 16.8848C35.5651 17.7376 36.4115 18.1641 37.4922 18.1641C38.5859 18.1641 39.4258 17.7474 40.0117 16.9141C40.6042 16.0807 40.9004 14.8633 40.9004 13.2617V12.5195ZM56.6816 15.3711C56.5384 16.888 55.9785 18.0729 55.002 18.9258C54.0254 19.7721 52.7266 20.1953 51.1055 20.1953C49.9727 20.1953 48.9733 19.9284 48.1074 19.3945C47.248 18.8542 46.584 18.0892 46.1152 17.0996C45.6465 16.11 45.4023 14.9609 45.3828 13.6523V12.3242C45.3828 10.9831 45.6204 9.80143 46.0957 8.7793C46.571 7.75716 47.2513 6.9694 48.1367 6.41602C49.0286 5.86263 50.0573 5.58594 51.2227 5.58594C52.7917 5.58594 54.0547 6.01237 55.0117 6.86523C55.9688 7.7181 56.5254 8.92253 56.6816 10.4785H54.2207C54.1035 9.45638 53.804 8.7207 53.3223 8.27148C52.847 7.81576 52.1471 7.58789 51.2227 7.58789C50.1484 7.58789 49.3216 7.98177 48.7422 8.76953C48.1693 9.55078 47.8763 10.6999 47.8633 12.2168V13.4766C47.8633 15.013 48.1367 16.1849 48.6836 16.9922C49.237 17.7995 50.0443 18.2031 51.1055 18.2031C52.0755 18.2031 52.8047 17.985 53.293 17.5488C53.7812 17.1126 54.0905 16.3867 54.2207 15.3711H56.6816ZM62.1016 5.78125L66.2031 16.6797L70.2949 5.78125H73.4883V20H71.0273V15.3125L71.2715 9.04297L67.0723 20H65.3047L61.1152 9.05273L61.3594 15.3125V20H58.8984V5.78125H62.1016ZM87.7656 13.2617C87.7656 14.6549 87.5247 15.8789 87.043 16.9336C86.5612 17.9818 85.8711 18.7891 84.9727 19.3555C84.0807 19.9154 83.0521 20.1953 81.8867 20.1953C80.7344 20.1953 79.7057 19.9154 78.8008 19.3555C77.9023 18.7891 77.2057 17.985 76.7109 16.9434C76.2227 15.9017 75.9753 14.7005 75.9688 13.3398V12.5391C75.9688 11.1523 76.2129 9.92839 76.7012 8.86719C77.196 7.80599 77.8893 6.99544 78.7812 6.43555C79.6797 5.86914 80.7083 5.58594 81.8672 5.58594C83.026 5.58594 84.0514 5.86589 84.9434 6.42578C85.8418 6.97917 86.5352 7.77995 87.0234 8.82812C87.5117 9.86979 87.7591 11.084 87.7656 12.4707V13.2617ZM85.2949 12.5195C85.2949 10.944 84.9954 9.73633 84.3965 8.89648C83.804 8.05664 82.9609 7.63672 81.8672 7.63672C80.7995 7.63672 79.9629 8.05664 79.3574 8.89648C78.7585 9.72982 78.4525 10.9115 78.4395 12.4414V13.2617C78.4395 14.8242 78.7422 16.0319 79.3477 16.8848C79.9596 17.7376 80.806 18.1641 81.8867 18.1641C82.9805 18.1641 83.8203 17.7474 84.4062 16.9141C84.9987 16.0807 85.2949 14.8633 85.2949 13.2617V12.5195ZM101.076 15.3711C100.933 16.888 100.373 18.0729 99.3965 18.9258C98.4199 19.7721 97.1211 20.1953 95.5 20.1953C94.3672 20.1953 93.3678 19.9284 92.502 19.3945C91.6426 18.8542 90.9785 18.0892 90.5098 17.0996C90.041 16.11 89.7969 14.9609 89.7773 13.6523V12.3242C89.7773 10.9831 90.015 9.80143 90.4902 8.7793C90.9655 7.75716 91.6458 6.9694 92.5312 6.41602C93.4232 5.86263 94.4518 5.58594 95.6172 5.58594C97.1862 5.58594 98.4492 6.01237 99.4062 6.86523C100.363 7.7181 100.92 8.92253 101.076 10.4785H98.6152C98.498 9.45638 98.1986 8.7207 97.7168 8.27148C97.2415 7.81576 96.5417 7.58789 95.6172 7.58789C94.543 7.58789 93.7161 7.98177 93.1367 8.76953C92.5638 9.55078 92.2708 10.6999 92.2578 12.2168V13.4766C92.2578 15.013 92.5312 16.1849 93.0781 16.9922C93.6315 17.7995 94.4388 18.2031 95.5 18.2031C96.4701 18.2031 97.1992 17.985 97.6875 17.5488C98.1758 17.1126 98.485 16.3867 98.6152 15.3711H101.076Z" fill="#F0F0F0"/>
<path d="M18 21.9531H101.838V22.9297H18V21.9531Z" fill="#F0F0F0"/>
<path d="M39.6299 30.0527C39.9587 29.6849 40.1784 29.3366 40.2891 29.0078C40.403 28.6758 40.4714 28.2526 40.4941 27.7383L40.5625 25.7168H44.2295V30.0527H44.9619V32.5723H43.7803V31H40.3916V32.5723H39.1904L39.1953 30.0527H39.6299ZM41.0215 30.0527H43.0479V26.7373H41.7148L41.6807 27.748C41.6351 28.7181 41.4154 29.4863 41.0215 30.0527ZM50.2988 25.7168V31H49.1123V26.6738H47.6182L47.5205 28.5146C47.4587 29.4001 47.2878 30.0365 47.0078 30.4238C46.7311 30.8079 46.3063 31 45.7334 31H45.3672L45.3623 30.0137L45.6064 29.9893C45.8669 29.9535 46.0557 29.7956 46.1729 29.5156C46.2933 29.2324 46.3698 28.7181 46.4023 27.9727L46.5 25.7168H50.2988ZM55.792 25.7168V31H54.6104V29.0615H53.502L52.374 31H51.1436L52.3887 28.8662C52.0632 28.7295 51.8125 28.5342 51.6367 28.2803C51.4642 28.0264 51.3779 27.735 51.3779 27.4062C51.3779 26.9147 51.5667 26.5127 51.9443 26.2002C52.3252 25.8844 52.8379 25.7233 53.4824 25.7168H55.792ZM52.5645 27.4355C52.5645 27.6569 52.6458 27.8376 52.8086 27.9775C52.9746 28.1143 53.1862 28.1826 53.4434 28.1826H54.6104V26.6592H53.5166C53.2269 26.6592 52.9958 26.7324 52.8232 26.8789C52.6507 27.0254 52.5645 27.2109 52.5645 27.4355ZM59.6885 31V25.7168H61.832C62.5547 25.7168 63.1048 25.8438 63.4824 26.0977C63.86 26.3483 64.0488 26.7096 64.0488 27.1816C64.0488 27.4258 63.9723 27.6455 63.8193 27.8408C63.6696 28.0329 63.4466 28.181 63.1504 28.2852C63.4954 28.3568 63.7689 28.5016 63.9707 28.7197C64.1725 28.9378 64.2734 29.195 64.2734 29.4912C64.2734 29.9827 64.0911 30.3571 63.7266 30.6143C63.3652 30.8714 62.8444 31 62.1641 31H59.6885ZM60.875 28.749V30.0625H62.1738C62.7826 30.0625 63.0869 29.8444 63.0869 29.4082C63.0869 28.9688 62.7777 28.749 62.1592 28.749H60.875ZM60.875 27.8994H61.8516C62.5254 27.8994 62.8623 27.7008 62.8623 27.3037C62.8623 26.887 62.5433 26.6722 61.9053 26.6592H60.875V27.8994ZM67.4717 30.1504C67.7679 30.1504 68.0137 30.0641 68.209 29.8916C68.4043 29.7191 68.5085 29.5059 68.5215 29.252H69.6396C69.6266 29.5807 69.5241 29.8883 69.332 30.1748C69.14 30.458 68.8796 30.6826 68.5508 30.8486C68.222 31.0146 67.8672 31.0977 67.4863 31.0977C66.7474 31.0977 66.1615 30.8584 65.7285 30.3799C65.2956 29.9014 65.0791 29.2406 65.0791 28.3975V28.2754C65.0791 27.4714 65.2939 26.8285 65.7236 26.3467C66.1533 25.8617 66.7393 25.6191 67.4814 25.6191C68.1097 25.6191 68.6208 25.8031 69.0146 26.1709C69.4118 26.5355 69.6201 27.0156 69.6396 27.6113H68.5215C68.5085 27.3086 68.4043 27.0596 68.209 26.8643C68.0169 26.6689 67.7712 26.5713 67.4717 26.5713C67.0876 26.5713 66.7913 26.7113 66.583 26.9912C66.3747 27.2679 66.2689 27.6895 66.2656 28.2559V28.4463C66.2656 29.0192 66.3682 29.4473 66.5732 29.7305C66.7816 30.0104 67.0811 30.1504 67.4717 30.1504ZM72.8623 31.0977C72.1104 31.0977 71.5 30.8617 71.0312 30.3896C70.5658 29.9144 70.333 29.2829 70.333 28.4951V28.3486C70.333 27.8213 70.4339 27.3509 70.6357 26.9375C70.8408 26.5208 71.1273 26.1969 71.4951 25.9658C71.863 25.7347 72.2731 25.6191 72.7256 25.6191C73.445 25.6191 74 25.8486 74.3906 26.3076C74.7845 26.7666 74.9814 27.416 74.9814 28.2559V28.7344H71.5293C71.5651 29.1706 71.71 29.5156 71.9639 29.7695C72.221 30.0234 72.5433 30.1504 72.9307 30.1504C73.4743 30.1504 73.917 29.9307 74.2588 29.4912L74.8984 30.1016C74.6868 30.4173 74.4036 30.6631 74.0488 30.8389C73.6973 31.0114 73.3018 31.0977 72.8623 31.0977ZM72.7207 26.5713C72.3952 26.5713 72.1315 26.6852 71.9297 26.9131C71.7311 27.141 71.6042 27.4583 71.5488 27.8652H73.8096V27.7773C73.7835 27.3802 73.6777 27.0807 73.4922 26.8789C73.3066 26.6738 73.0495 26.5713 72.7207 26.5713ZM77.8037 27.4551L78.8096 25.7168H80.1279L78.5117 28.3193L80.1816 31H78.873L77.8184 29.1934L76.7686 31H75.4502L77.1201 28.3193L75.5088 25.7168H76.8174L77.8037 27.4551Z" fill="#F0F0F0"/>
<rect x="0.5" y="0.5" width="120" height="35" stroke="#F0F0F0"/>
</svg>
